<svg width="51" height="40" viewBox="0 0 51 40" fill="none" xmlns="http://www.w3.org/2000/svg">
<path d="M33.5 33.4577H41.625C43.7799 33.4577 45.8465 32.6017 47.3702 31.078C48.894 29.5542 49.75 27.4876 49.75 25.3327C49.75 23.1778 48.894 21.1112 47.3702 19.5875C45.8465 18.0637 43.7799 17.2077 41.625 17.2077H41.5573C41.6002 16.7576 41.6228 16.3057 41.625 15.8535C41.6148 12.2605 40.3062 8.79232 37.9405 6.08806C35.5748 3.38379 32.3113 1.62576 28.7516 1.13795C25.1918 0.650151 21.5757 1.46546 18.5697 3.43361C15.5637 5.40176 13.3704 8.39012 12.394 11.8479C12.2044 11.8371 12.0256 11.791 11.8333 11.791C8.96015 11.791 6.20465 12.9324 4.17301 14.964C2.14137 16.9957 1 19.7512 1 22.6244C1 25.4976 2.14137 28.2531 4.17301 30.2847C6.20465 32.3163 8.96015 33.4577 11.8333 33.4577H17.7023M25.375 38.8744V14.4994M25.375 14.4994L19.9583 19.916M25.375 14.4994L30.7917 19.916" stroke="#F6652C" stroke-width="2" stroke-linecap="round" stroke-linejoin="round"/>
</svg>
