<svg width="105" height="53" viewBox="0 0 105 53" fill="none" xmlns="http://www.w3.org/2000/svg">
<g clip-path="url(#clip0_291_2766)">
<rect width="105" height="52.2667" fill="white"/>
<path d="M9.28467 27.7276C9.28467 35.2758 15.4038 41.3949 22.9521 41.3949C30.5003 41.3949 36.6193 35.2758 36.6193 27.7276C36.6193 20.1793 30.5003 14.0603 22.9521 14.0603C15.4038 14.0603 9.28467 20.1793 9.28467 27.7276Z" fill="url(#paint0_linear_291_2766)"/>
<mask id="mask0_291_2766" style="mask-type:luminance" maskUnits="userSpaceOnUse" x="9" y="14" width="28" height="28">
<path d="M9.28467 27.7282C9.28467 35.2764 15.4038 41.3955 22.9521 41.3955C30.5003 41.3955 36.6193 35.2764 36.6193 27.7282C36.6193 20.1799 30.5003 14.0609 22.9521 14.0609C15.4038 14.0609 9.28467 20.1799 9.28467 27.7282Z" fill="white"/>
</mask>
<g mask="url(#mask0_291_2766)">
<path d="M34.4418 29.0755C34.2521 29.1032 34.2446 29.3564 34.4291 29.3954L35.7769 29.3965C35.9708 29.3543 35.9562 29.0885 35.7539 29.0738L34.4418 29.0755ZM34.3402 28.7021C34.3681 28.73 34.4211 28.7459 34.4601 28.7494C34.8749 28.7868 35.3453 28.7206 35.766 28.749C35.9632 28.7279 35.9632 28.4465 35.766 28.4253C35.3554 28.3813 34.8683 28.4584 34.4497 28.4253C34.313 28.4328 34.2408 28.6029 34.3402 28.7021ZM33.4381 28.2553C33.3924 28.2648 33.3343 28.3226 33.3248 28.3685C33.3118 28.4328 33.3136 28.7161 33.3221 28.787C33.3326 28.8745 33.4154 28.9308 33.5006 28.9219C33.5475 28.917 33.6224 28.8636 33.6329 28.8168C33.6448 28.7646 33.6439 28.4249 33.6347 28.3666C33.6219 28.2862 33.5138 28.2396 33.4381 28.2553ZM34.4199 27.7806C34.238 27.8338 34.2592 28.0777 34.451 28.1005C34.8644 28.0723 35.3378 28.1425 35.7441 28.1015C35.9539 28.0805 35.9751 27.8422 35.7867 27.7787L34.4199 27.7806ZM31.6934 27.2387C31.721 27.1918 31.7798 27.12 31.8391 27.12H33.3063L33.3224 27.1362V27.6864C33.3224 27.7011 33.3709 27.761 33.3877 27.7722C33.4432 27.8091 33.5144 27.8091 33.5699 27.7722C33.5867 27.761 33.6353 27.7011 33.6353 27.6864V27.1362L33.6515 27.12H37.0712C37.1278 27.12 37.2076 27.1985 37.2162 27.2556L37.2119 27.9835C37.1587 28.1353 37.0034 28.0858 36.8769 28.1339C36.4725 28.2879 36.4675 28.8764 36.8689 29.0377C36.959 29.0738 37.0509 29.0593 37.127 29.0925C37.1737 29.1129 37.1908 29.1465 37.2119 29.191L37.2162 29.9189C37.2076 29.9758 37.1278 30.0544 37.0712 30.0544H33.6515L33.6353 30.0382V29.488C33.6353 29.4732 33.5867 29.4133 33.5699 29.4023C33.5144 29.3653 33.4432 29.3653 33.3877 29.4023C33.3709 29.4133 33.3224 29.4732 33.3224 29.488V30.0382L33.3063 30.0544H31.8391C31.7798 30.0544 31.721 29.9827 31.6934 29.9357V29.1913C31.7578 29.0388 31.9027 29.0902 32.0334 29.0405C32.4378 28.8866 32.4428 28.2979 32.0414 28.1367C31.9085 28.0833 31.7594 28.1378 31.6934 27.983V27.2387Z" fill="#F0523E"/>
</g>
<mask id="mask1_291_2766" style="mask-type:luminance" maskUnits="userSpaceOnUse" x="9" y="14" width="28" height="28">
<path d="M9.28467 27.7282C9.28467 35.2764 15.4038 41.3955 22.9521 41.3955C30.5003 41.3955 36.6193 35.2764 36.6193 27.7282C36.6193 20.1799 30.5003 14.0609 22.9521 14.0609C15.4038 14.0609 9.28467 20.1799 9.28467 27.7282Z" fill="white"/>
</mask>
<g mask="url(#mask1_291_2766)">
<path d="M28.9564 20.2398C28.7667 20.2676 28.7593 20.5208 28.9437 20.5597L30.2916 20.5609C30.4855 20.5187 30.4709 20.2529 30.2686 20.2382L28.9564 20.2398ZM28.8548 19.8665C28.8827 19.8944 28.9358 19.9103 28.9748 19.9138C29.3895 19.9512 29.8599 19.8849 30.2806 19.9134C30.4779 19.8923 30.4779 19.6109 30.2806 19.5897C29.8701 19.5457 29.383 19.6228 28.9644 19.5897C28.8276 19.5971 28.7554 19.7672 28.8548 19.8665ZM27.9528 19.4197C27.907 19.4291 27.8489 19.487 27.8395 19.5328C27.8264 19.5971 27.8283 19.8805 27.8368 19.9513C27.8473 20.0388 27.93 20.0952 28.0153 20.0863C28.0622 20.0814 28.1371 20.028 28.1476 19.9812C28.1595 19.9289 28.1586 19.5893 28.1493 19.531C28.1365 19.4506 28.0285 19.4039 27.9528 19.4197ZM28.9345 18.945C28.7526 18.9982 28.7739 19.2421 28.9657 19.2649C29.379 19.2366 29.8524 19.3069 30.2588 19.2659C30.4686 19.2449 30.4898 19.0066 30.3015 18.9431L28.9345 18.945ZM26.208 18.403C26.2357 18.3561 26.2945 18.2844 26.3537 18.2844H27.8209L27.837 18.3006V18.8508C27.837 18.8655 27.8856 18.9254 27.9024 18.9366C27.9579 18.9734 28.0291 18.9734 28.0846 18.9366C28.1014 18.9254 28.1499 18.8655 28.1499 18.8508V18.3006L28.1661 18.2844H31.5859C31.6425 18.2844 31.7223 18.3629 31.7309 18.42L31.7266 19.1478C31.6734 19.2996 31.5181 19.2502 31.3915 19.2982C30.9871 19.4522 30.9821 20.0408 31.3836 20.202C31.4736 20.2382 31.5656 20.2236 31.6416 20.2569C31.6883 20.2773 31.7055 20.3109 31.7266 20.3553L31.7309 21.0832C31.7223 21.1402 31.6425 21.2188 31.5859 21.2188H28.1661L28.1499 21.2026V20.6524C28.1499 20.6376 28.1014 20.5777 28.0846 20.5666C28.0291 20.5296 27.9579 20.5296 27.9024 20.5666C27.8856 20.5777 27.837 20.6376 27.837 20.6524V21.2026L27.8209 21.2188H26.3537C26.2945 21.2188 26.2357 21.147 26.208 21.1V20.3557C26.2724 20.2032 26.4173 20.2545 26.5481 20.2048C26.9525 20.051 26.9575 19.4623 26.556 19.301C26.4231 19.2477 26.274 19.3022 26.208 19.1474V18.403Z" fill="#F0523E"/>
</g>
<mask id="mask2_291_2766" style="mask-type:luminance" maskUnits="userSpaceOnUse" x="9" y="14" width="28" height="28">
<path d="M9.28467 27.7282C9.28467 35.2764 15.4038 41.3955 22.9521 41.3955C30.5003 41.3955 36.6193 35.2764 36.6193 27.7282C36.6193 20.1799 30.5003 14.0609 22.9521 14.0609C15.4038 14.0609 9.28467 20.1799 9.28467 27.7282Z" fill="white"/>
</mask>
<g mask="url(#mask2_291_2766)">
<path d="M23.4335 38.4864C23.2438 38.5142 23.2363 38.7673 23.4208 38.8063L24.7686 38.8075C24.9625 38.7652 24.9479 38.4995 24.7456 38.4848L23.4335 38.4864ZM23.3319 38.1131C23.3598 38.1409 23.4128 38.1568 23.4518 38.1603C23.8666 38.1978 24.337 38.1315 24.7577 38.16C24.9549 38.1388 24.9549 37.8574 24.7577 37.8362C24.3471 37.7922 23.86 37.8693 23.4414 37.8362C23.3047 37.8437 23.2325 38.0138 23.3319 38.1131ZM22.4298 37.6662C22.3841 37.6757 22.326 37.7335 22.3165 37.7794C22.3035 37.8437 22.3053 38.1271 22.3138 38.1979C22.3243 38.2854 22.4071 38.3417 22.4923 38.3329C22.5392 38.328 22.6141 38.2745 22.6246 38.2277C22.6365 38.1755 22.6356 37.8359 22.6264 37.7775C22.6136 37.6971 22.5055 37.6505 22.4298 37.6662ZM23.4116 37.1915C23.2297 37.2447 23.2509 37.4887 23.4427 37.5114C23.8561 37.4832 24.3295 37.5534 24.7358 37.5125C24.9456 37.4915 24.9668 37.2531 24.7785 37.1896L23.4116 37.1915ZM20.6851 36.6496C20.7127 36.6027 20.7715 36.5309 20.8308 36.5309H22.298L22.3141 36.5472V37.0974C22.3141 37.1121 22.3626 37.1719 22.3794 37.1831C22.4349 37.22 22.5061 37.22 22.5616 37.1831C22.5784 37.1719 22.627 37.1121 22.627 37.0974V36.5472L22.6432 36.5309H26.0629C26.1195 36.5309 26.1993 36.6095 26.2079 36.6665L26.2036 37.3944C26.1504 37.5462 25.9951 37.4967 25.8686 37.5448C25.4642 37.6988 25.4592 38.2874 25.8606 38.4486C25.9507 38.4848 26.0426 38.4702 26.1187 38.5034C26.1654 38.5238 26.1825 38.5574 26.2036 38.6019L26.2079 39.3298C26.1993 39.3867 26.1195 39.4653 26.0629 39.4653H22.6432L22.627 39.4491V38.8989C22.627 38.8841 22.5784 38.8243 22.5616 38.8132C22.5061 38.7762 22.4349 38.7762 22.3794 38.8132C22.3626 38.8243 22.3141 38.8841 22.3141 38.8989V39.4491L22.298 39.4653H20.8308C20.7715 39.4653 20.7127 39.3936 20.6851 39.3466V38.6022C20.7495 38.4498 20.8944 38.5011 21.0251 38.4514C21.4295 38.2975 21.4345 37.7088 21.0331 37.5476C20.9002 37.4943 20.7511 37.5487 20.6851 37.3939V36.6496Z" fill="#F0523E"/>
</g>
<mask id="mask3_291_2766" style="mask-type:luminance" maskUnits="userSpaceOnUse" x="9" y="14" width="28" height="28">
<path d="M9.28467 27.7282C9.28467 35.2764 15.4038 41.3955 22.9521 41.3955C30.5003 41.3955 36.6193 35.2764 36.6193 27.7282C36.6193 20.1799 30.5003 14.0609 22.9521 14.0609C15.4038 14.0609 9.28467 20.1799 9.28467 27.7282Z" fill="white"/>
</mask>
<g mask="url(#mask3_291_2766)">
<path d="M20.5111 30.0696C20.3214 30.0973 20.314 30.3505 20.4984 30.3895L21.8463 30.3906C22.0402 30.3484 22.0256 30.0826 21.8233 30.0679L20.5111 30.0696ZM20.4095 29.6962C20.4374 29.7241 20.4905 29.74 20.5294 29.7436C20.9442 29.7809 21.4146 29.7147 21.8353 29.7431C22.0326 29.722 22.0326 29.4406 21.8353 29.4194C21.4247 29.3754 20.9377 29.4525 20.5191 29.4194C20.3823 29.4268 20.3101 29.5969 20.4095 29.6962ZM19.5074 29.2494C19.4617 29.2588 19.4036 29.3167 19.3942 29.3626C19.3811 29.4268 19.383 29.7102 19.3915 29.781C19.402 29.8685 19.4847 29.9249 19.57 29.916C19.6169 29.9111 19.6918 29.8577 19.7023 29.8109C19.7142 29.7586 19.7132 29.419 19.704 29.3607C19.6912 29.2803 19.5832 29.2336 19.5074 29.2494ZM20.4892 28.7747C20.3073 28.8279 20.3285 29.0718 20.5203 29.0946C20.9337 29.0663 21.4071 29.1366 21.8136 29.0957C22.0232 29.0746 22.0446 28.8363 21.8562 28.7728L20.4892 28.7747ZM17.7627 28.2328C17.7903 28.1859 17.8491 28.1141 17.9084 28.1141H19.3756L19.3917 28.1303V28.6805C19.3917 28.6952 19.4402 28.7551 19.457 28.7663C19.5126 28.8031 19.5837 28.8031 19.6393 28.7663C19.6561 28.7551 19.7046 28.6952 19.7046 28.6805V28.1303L19.7208 28.1141H23.1406C23.1971 28.1141 23.2769 28.1926 23.2856 28.2497L23.2813 28.9776C23.2281 29.1293 23.0728 29.0799 22.9462 29.1279C22.5418 29.2819 22.5368 29.8705 22.9383 30.0318C23.0283 30.0679 23.1203 30.0533 23.1963 30.0866C23.243 30.107 23.2601 30.1406 23.2813 30.1851L23.2856 30.9129C23.2769 30.9699 23.1971 31.0485 23.1406 31.0485H19.7208L19.7046 31.0323V30.4821C19.7046 30.4673 19.6561 30.4074 19.6393 30.3963C19.5837 30.3594 19.5126 30.3594 19.457 30.3963C19.4402 30.4074 19.3917 30.4673 19.3917 30.4821V31.0323L19.3756 31.0485H17.9084C17.8491 31.0485 17.7903 30.9768 17.7627 30.9297V30.1854C17.8271 30.0329 17.972 30.0843 18.1028 30.0346C18.5071 29.8807 18.5122 29.292 18.1107 29.1307C17.9778 29.0774 17.8287 29.1319 17.7627 28.9771V28.2328Z" fill="#F0523E"/>
</g>
<mask id="mask4_291_2766" style="mask-type:luminance" maskUnits="userSpaceOnUse" x="9" y="14" width="28" height="28">
<path d="M9.28467 27.7282C9.28467 35.2764 15.4038 41.3955 22.9521 41.3955C30.5003 41.3955 36.6193 35.2764 36.6193 27.7282C36.6193 20.1799 30.5003 14.0609 22.9521 14.0609C15.4038 14.0609 9.28467 20.1799 9.28467 27.7282Z" fill="white"/>
</mask>
<g mask="url(#mask4_291_2766)">
<path d="M11.6913 22.3446C11.5016 22.3724 11.4941 22.6255 11.6786 22.6645L13.0264 22.6657C13.2203 22.6234 13.2058 22.3577 13.0035 22.343L11.6913 22.3446ZM11.5897 21.9713C11.6176 21.9991 11.6707 22.015 11.7096 22.0185C12.1244 22.056 12.5948 21.9897 13.0155 22.0182C13.2128 21.997 13.2128 21.7156 13.0155 21.6944C12.6049 21.6504 12.1178 21.7275 11.6992 21.6944C11.5625 21.7019 11.4903 21.872 11.5897 21.9713ZM10.6876 21.5244C10.6419 21.5339 10.5838 21.5917 10.5743 21.6376C10.5613 21.7019 10.5631 21.9853 10.5717 22.0561C10.5822 22.1436 10.6649 22.1999 10.7502 22.1911C10.7971 22.1862 10.872 22.1327 10.8825 22.0859C10.8944 22.0337 10.8934 21.6941 10.8842 21.6357C10.8714 21.5553 10.7633 21.5087 10.6876 21.5244ZM11.6694 21.0497C11.4875 21.1029 11.5087 21.3469 11.7005 21.3696C12.1139 21.3414 12.5873 21.4116 12.9937 21.3708C13.2034 21.3497 13.2248 21.1113 13.0364 21.0478L11.6694 21.0497ZM8.94287 20.5078C8.97052 20.4609 9.02932 20.3891 9.08859 20.3891H10.5558L10.5719 20.4054V20.9556C10.5719 20.9703 10.6204 21.0301 10.6372 21.0413C10.6928 21.0782 10.7639 21.0782 10.8195 21.0413C10.8363 21.0301 10.8848 20.9703 10.8848 20.9556V20.4054L10.901 20.3891H14.3207C14.3773 20.3891 14.4571 20.4677 14.4658 20.5247L14.4614 21.2526C14.4082 21.4044 14.253 21.3549 14.1264 21.403C13.722 21.557 13.717 22.1456 14.1184 22.3068C14.2085 22.343 14.3004 22.3284 14.3765 22.3616C14.4232 22.382 14.4403 22.4156 14.4614 22.4601L14.4658 23.188C14.4571 23.2449 14.3773 23.3235 14.3207 23.3235H10.901L10.8848 23.3073V22.7571C10.8848 22.7423 10.8363 22.6825 10.8195 22.6714C10.7639 22.6344 10.6928 22.6344 10.6372 22.6714C10.6204 22.6825 10.5719 22.7423 10.5719 22.7571V23.3073L10.5558 23.3235H9.08859C9.02932 23.3235 8.97052 23.2518 8.94287 23.2048V22.4604C9.00727 22.308 9.15217 22.3593 9.28295 22.3096C9.68732 22.1557 9.69234 21.567 9.29089 21.4058C9.158 21.3525 9.0089 21.4069 8.94287 21.2521V20.5078Z" fill="#F0523E"/>
</g>
<mask id="mask5_291_2766" style="mask-type:luminance" maskUnits="userSpaceOnUse" x="9" y="14" width="28" height="28">
<path d="M9.28467 27.7282C9.28467 35.2764 15.4038 41.3955 22.9521 41.3955C30.5003 41.3955 36.6193 35.2764 36.6193 27.7282C36.6193 20.1799 30.5003 14.0609 22.9521 14.0609C15.4038 14.0609 9.28467 20.1799 9.28467 27.7282Z" fill="white"/>
</mask>
<g mask="url(#mask5_291_2766)">
<path d="M10.8783 36.6094C10.6886 36.6372 10.6811 36.8903 10.8656 36.9293L12.2134 36.9305C12.4073 36.8882 12.3928 36.6225 12.1905 36.6078L10.8783 36.6094ZM10.7767 36.2361C10.8046 36.2639 10.8577 36.2798 10.8966 36.2833C11.3114 36.3208 11.7818 36.2545 12.2025 36.283C12.3998 36.2618 12.3998 35.9804 12.2025 35.9592C11.7919 35.9152 11.3048 35.9923 10.8862 35.9592C10.7495 35.9667 10.6773 36.1368 10.7767 36.2361ZM9.87463 35.7892C9.8289 35.7987 9.7708 35.8565 9.76135 35.9024C9.74828 35.9667 9.75015 36.2501 9.75867 36.3209C9.76917 36.4084 9.85188 36.4647 9.93717 36.4559C9.98407 36.451 10.059 36.3975 10.0695 36.3507C10.0814 36.2985 10.0804 35.9589 10.0712 35.9005C10.0584 35.8201 9.95035 35.7735 9.87463 35.7892ZM10.8564 35.3145C10.6745 35.3677 10.6957 35.6117 10.8875 35.6344C11.3009 35.6062 11.7743 35.6764 12.1807 35.6356C12.3904 35.6145 12.4118 35.3761 12.2232 35.3126L10.8564 35.3145ZM8.12988 34.7726C8.15753 34.7257 8.21633 34.6539 8.2756 34.6539H9.7428L9.7589 34.6702V35.2204C9.7589 35.2351 9.80743 35.2949 9.82423 35.3061C9.87977 35.343 9.95093 35.343 10.0065 35.3061C10.0233 35.2949 10.0718 35.2351 10.0718 35.2204V34.6702L10.088 34.6539H13.5077C13.5643 34.6539 13.6441 34.7325 13.6528 34.7895L13.6484 35.5174C13.5952 35.6692 13.44 35.6197 13.3134 35.6678C12.909 35.8218 12.904 36.4104 13.3054 36.5716C13.3955 36.6078 13.4874 36.5932 13.5635 36.6264C13.6102 36.6468 13.6273 36.6804 13.6484 36.7249L13.6528 37.4528C13.6441 37.5097 13.5643 37.5883 13.5077 37.5883H10.088L10.0718 37.5721V37.0219C10.0718 37.0071 10.0233 36.9473 10.0065 36.9362C9.95093 36.8992 9.87977 36.8992 9.82423 36.9362C9.80743 36.9473 9.7589 37.0071 9.7589 37.0219V37.5721L9.7428 37.5883H8.2756C8.21633 37.5883 8.15753 37.5166 8.12988 37.4696V36.7252C8.19428 36.5728 8.33918 36.6241 8.46997 36.5744C8.87433 36.4205 8.87935 35.8318 8.4779 35.6706C8.34502 35.6173 8.19592 35.6717 8.12988 35.5169V34.7726Z" fill="#F0523E"/>
</g>
<mask id="mask6_291_2766" style="mask-type:luminance" maskUnits="userSpaceOnUse" x="9" y="14" width="28" height="28">
<path d="M9.28467 27.7282C9.28467 35.2764 15.4038 41.3955 22.9521 41.3955C30.5003 41.3955 36.6193 35.2764 36.6193 27.7282C36.6193 20.1799 30.5003 14.0609 22.9521 14.0609C15.4038 14.0609 9.28467 20.1799 9.28467 27.7282Z" fill="white"/>
</mask>
<g mask="url(#mask6_291_2766)">
<path d="M19.3715 14.0594C19.1818 14.0872 19.1743 14.3404 19.3588 14.3793L20.7066 14.3805C20.9005 14.3383 20.8859 14.0725 20.6836 14.0578L19.3715 14.0594ZM19.2699 13.6861C19.2977 13.714 19.3508 13.7299 19.3898 13.7334C19.8045 13.7708 20.2749 13.7045 20.6956 13.733C20.8929 13.7119 20.8929 13.4305 20.6956 13.4093C20.2851 13.3653 19.798 13.4424 19.3794 13.4093C19.2427 13.4167 19.1705 13.5868 19.2699 13.6861ZM18.3678 13.2393C18.3221 13.2487 18.264 13.3066 18.2545 13.3524C18.2414 13.4167 18.2433 13.7001 18.2518 13.7709C18.2623 13.8584 18.345 13.9148 18.4303 13.9059C18.4772 13.901 18.5521 13.8476 18.5626 13.8008C18.5745 13.7485 18.5736 13.4089 18.5644 13.3506C18.5515 13.2702 18.4435 13.2235 18.3678 13.2393ZM19.3495 12.7646C19.1677 12.8178 19.1889 13.0617 19.3807 13.0845C19.794 13.0562 20.2675 13.1265 20.6739 13.0855C20.8836 13.0645 20.9049 12.8262 20.7165 12.7627L19.3495 12.7646ZM16.623 12.2226C16.6507 12.1757 16.7095 12.104 16.7688 12.104H18.236L18.2521 12.1202V12.6704C18.2521 12.6851 18.3006 12.745 18.3174 12.7562C18.3729 12.793 18.4441 12.793 18.4996 12.7562C18.5164 12.745 18.565 12.6851 18.565 12.6704V12.1202L18.5812 12.104H22.0009C22.0575 12.104 22.1373 12.1825 22.1459 12.2396L22.1416 12.9674C22.0884 13.1192 21.9331 13.0698 21.8065 13.1178C21.4022 13.2718 21.3972 13.8604 21.7986 14.0216C21.8887 14.0578 21.9806 14.0432 22.0567 14.0765C22.1033 14.0969 22.1205 14.1305 22.1416 14.1749L22.1459 14.9028C22.1373 14.9598 22.0575 15.0384 22.0009 15.0384H18.5812L18.565 15.0222V14.472C18.565 14.4572 18.5164 14.3973 18.4996 14.3862C18.4441 14.3492 18.3729 14.3492 18.3174 14.3862C18.3006 14.3973 18.2521 14.4572 18.2521 14.472V15.0222L18.236 15.0384H16.7688C16.7095 15.0384 16.6507 14.9666 16.623 14.9196V14.1753C16.6874 14.0228 16.8323 14.0741 16.9631 14.0244C17.3675 13.8706 17.3725 13.2819 16.9711 13.1206C16.8382 13.0673 16.6891 13.1218 16.623 12.967V12.2226Z" fill="#F0523E"/>
</g>
<mask id="mask7_291_2766" style="mask-type:luminance" maskUnits="userSpaceOnUse" x="-12" y="-75" width="141" height="141">
<path d="M-11.1416 -74.7827H128.858V65.2173H-11.1416V-74.7827Z" fill="white"/>
</mask>
<g mask="url(#mask7_291_2766)">
<path d="M29.6627 27.2677H26.5599L26.3076 26.4857C26.3076 26.4857 27.9726 26.4857 29.0573 25.3253C29.0573 25.3253 29.5114 25.9307 29.6627 27.2677Z" fill="white"/>
</g>
<mask id="mask8_291_2766" style="mask-type:luminance" maskUnits="userSpaceOnUse" x="-12" y="-75" width="141" height="141">
<path d="M-11.1416 -74.7827H128.858V65.2173H-11.1416V-74.7827Z" fill="white"/>
</mask>
<g mask="url(#mask8_291_2766)">
<path d="M26.0862 23.0155C26.0523 22.9349 26.0628 22.8484 26.0535 22.7645C26.0474 22.7098 26.0465 22.6543 26.0399 22.5997C26.0363 22.5687 26.0313 22.536 26.0049 22.516C25.9926 22.5163 25.9885 22.5224 25.99 22.5295C26.0006 22.5789 25.9807 22.6196 25.9548 22.6587C25.9122 22.7227 25.8569 22.7743 25.7954 22.8195C25.6475 22.9285 25.481 23 25.3075 23.0565C25.064 23.1359 24.8129 23.1795 24.5595 23.212C24.1082 23.2701 23.6561 23.2513 23.2038 23.2294C22.9834 23.2187 22.7636 23.1987 22.5442 23.1763C22.0701 23.128 21.6033 23.0374 21.147 22.8991C20.699 22.7633 20.2674 22.5883 19.8739 22.3294C19.7334 22.2369 19.6013 22.1339 19.4802 22.0169C19.4369 21.9751 19.4015 21.927 19.3672 21.878C19.3375 21.8358 19.3273 21.7866 19.322 21.7299C19.2854 21.7457 19.2771 21.7758 19.2659 21.8013C19.2418 21.8559 19.2209 21.9119 19.1984 21.9673C19.1785 22.0163 19.1586 22.0653 19.1312 22.1108C19.1146 22.1381 19.1041 22.1652 19.1289 22.197C18.584 21.7756 18.0492 21.3465 17.5891 20.8329C17.6084 20.8124 17.621 20.8221 17.633 20.8269C18.0229 20.9853 18.3991 21.1736 18.7798 21.3522C18.9504 21.4324 19.1244 21.5047 19.3055 21.5588C19.3683 21.5776 19.3766 21.5738 19.3862 21.5089C19.4767 20.8978 19.6448 20.3055 19.8225 19.7155C19.9034 19.4468 20.0009 19.1843 20.1119 18.9263C20.1971 18.7277 20.2537 18.5183 20.3188 18.3125C20.3669 18.1607 20.4208 18.0124 20.5061 17.8767C20.5949 17.7356 20.6985 17.6086 20.8285 17.5026C20.9017 17.4428 20.9804 17.4308 21.0676 17.4495C21.144 17.4659 21.2183 17.4889 21.2903 17.5209C21.613 17.6644 21.9191 17.8365 22.1967 18.0555C22.3482 18.175 22.4838 18.3134 22.6207 18.4496C22.7525 18.5808 22.8848 18.7119 23.0082 18.8515C23.0452 18.8934 23.0899 18.9253 23.1422 18.9462C23.2731 18.9982 23.3839 18.9685 23.4737 18.8595C23.5673 18.7459 23.6689 18.6394 23.7708 18.5333C23.9714 18.3245 24.1722 18.1158 24.3919 17.9262C24.4582 17.869 24.529 17.8182 24.6033 17.772C24.8292 17.6318 25.0745 17.7342 25.1804 17.8729C25.2249 17.9312 25.2461 17.999 25.2662 18.0672C25.3168 18.2394 25.349 18.4157 25.3838 18.5917C25.4249 18.799 25.4572 19.0082 25.5098 19.2131C25.5378 19.3225 25.5698 19.4305 25.6095 19.5358C25.6968 19.7671 25.7541 20.0041 25.778 20.2512C25.8198 20.6835 25.8722 21.1146 25.918 21.5464C25.9384 21.7383 25.9539 21.9307 25.971 22.1228C25.977 22.1915 25.9877 22.1998 26.0585 22.185C26.3086 22.1327 26.5519 22.0557 26.7948 21.978C27.1383 21.8681 27.4809 21.7547 27.8239 21.643C28.0752 21.5609 28.3272 21.4817 28.5844 21.4199C28.7234 21.3864 28.8645 21.3661 29.0068 21.3585C29.1165 21.3527 29.2143 21.3877 29.2928 21.4703C29.38 21.5618 29.4411 21.6694 29.4898 21.784C29.6156 22.0803 29.6706 22.3902 29.6622 22.7121C29.6499 23.1832 29.5242 23.6237 29.3022 24.037C29.1589 24.3035 28.9767 24.5431 28.7695 24.7636C28.5625 24.9838 28.3339 25.1795 28.0854 25.351C27.6037 25.6831 27.0729 25.8885 26.4917 25.9623C26.2429 25.994 25.9935 26.0073 25.7425 26.0044C25.6276 26.0031 25.5127 26.0054 25.398 25.9981C25.0886 25.9786 24.7795 25.9586 24.4716 25.9175C23.8338 25.8322 23.2127 25.6807 22.6049 25.4709C22.1133 25.3012 21.6346 25.1006 21.1621 24.8842C20.6481 24.6489 20.1341 24.4132 19.6184 24.1817C19.1886 23.9888 18.757 23.7993 18.313 23.6408C18.0792 23.5573 17.8436 23.4787 17.6182 23.3742C17.2288 23.1936 16.8994 22.9385 16.6598 22.5782C16.458 22.2748 16.3401 21.9385 16.2798 21.5804C16.2418 21.3548 16.2314 21.1279 16.2507 20.9003C16.269 20.6828 16.3208 20.4734 16.433 20.284C16.5431 20.0981 16.7366 20.0587 16.9186 20.1783C17.0323 20.2531 17.1152 20.3575 17.1932 20.4659C17.3533 20.6883 17.5228 20.9027 17.7134 21.0996C17.8813 21.2731 18.061 21.4344 18.2419 21.5941C18.6094 21.9185 19.0007 22.2125 19.3976 22.4995C19.8001 22.7905 20.2097 23.0707 20.6217 23.3479C20.8849 23.525 21.1467 23.704 21.4098 23.8812C21.8483 24.1766 22.292 24.464 22.7582 24.7144C22.8857 24.7828 23.0143 24.8512 23.1481 24.9055C23.3285 24.9787 23.5036 25.0634 23.6871 25.1305C23.9441 25.2244 24.201 25.3169 24.4648 25.3889C24.6217 25.4317 24.7807 25.4667 24.9391 25.504C25.1541 25.5549 25.3715 25.5882 25.589 25.623C25.6665 25.6354 25.7449 25.6338 25.8226 25.6419C26.0103 25.6618 26.1989 25.6485 26.387 25.6573C26.414 25.6586 26.4413 25.654 26.4683 25.647C26.3604 25.6345 26.252 25.6298 26.1439 25.6353C26.0355 25.6409 25.9277 25.6362 25.8202 25.6269C25.4855 25.598 25.1562 25.5344 24.8294 25.4584C24.5608 25.3959 24.2972 25.3156 24.0354 25.2284C23.7012 25.1168 23.3764 24.983 23.0587 24.8323C22.7885 24.7042 22.5305 24.5536 22.2752 24.3979C21.9139 24.1777 21.5669 23.936 21.2201 23.6942C20.9373 23.497 20.6517 23.3038 20.3675 23.1088C20.3499 23.0965 20.3291 23.0871 20.3241 23.0593C20.3705 23.0874 20.4185 23.1131 20.463 23.1439C20.6857 23.298 20.9351 23.3876 21.1952 23.4542C21.4312 23.5146 21.6688 23.5683 21.9082 23.6118C22.1023 23.6471 22.2976 23.6762 22.4941 23.698C22.7547 23.7271 23.0162 23.7391 23.2774 23.7575C23.4265 23.768 23.5756 23.7767 23.7248 23.7799C24.2263 23.7911 24.7205 23.7388 25.2032 23.5972C25.3889 23.5428 25.5677 23.4698 25.7354 23.3722C25.8629 23.2981 25.9698 23.2027 26.0363 23.0678C26.0475 23.0451 26.058 23.0214 26.0867 23.0152C26.0776 23.1904 25.9987 23.3244 25.8548 23.4249C25.733 23.5101 25.6013 23.5726 25.4616 23.6213C25.0546 23.7633 24.6322 23.8268 24.2051 23.8574C23.8663 23.8818 23.5263 23.8883 23.1863 23.8683C23.0279 23.8588 22.8699 23.8459 22.7125 23.8295C22.4658 23.8039 22.2199 23.7712 21.9761 23.7243C21.7728 23.6853 21.5703 23.644 21.3733 23.58C21.24 23.5367 21.1069 23.4926 20.9737 23.4493C20.9597 23.4448 20.9453 23.4333 20.9269 23.4493C20.9514 23.4751 20.9814 23.4918 21.0098 23.5099C21.3047 23.6972 21.5997 23.8841 21.8943 24.0718C21.9375 24.0994 21.9827 24.1203 22.0322 24.1329C22.3157 24.2045 22.6035 24.253 22.8947 24.2738C23.4341 24.3121 23.9734 24.316 24.5121 24.2542C24.8051 24.2206 25.0941 24.171 25.3748 24.0784C25.6024 24.0031 25.8139 23.8993 25.9787 23.7196C26.1758 23.5047 26.1914 23.3154 26.109 23.0494C26.1051 23.0369 26.0939 23.0267 26.0862 23.0155Z" fill="white"/>
</g>
<mask id="mask9_291_2766" style="mask-type:luminance" maskUnits="userSpaceOnUse" x="-12" y="-75" width="141" height="141">
<path d="M-11.1416 -74.7827H128.858V65.2173H-11.1416V-74.7827Z" fill="white"/>
</mask>
<g mask="url(#mask9_291_2766)">
<path d="M19.8193 22.7175C19.9117 22.7592 20.1551 22.9303 20.2015 22.9837C20.0694 22.9017 19.942 22.8123 19.8193 22.7175Z" fill="white"/>
</g>
<mask id="mask10_291_2766" style="mask-type:luminance" maskUnits="userSpaceOnUse" x="-12" y="-75" width="141" height="141">
<path d="M-11.1416 -74.7827H128.858V65.2173H-11.1416V-74.7827Z" fill="white"/>
</mask>
<g mask="url(#mask10_291_2766)">
<path d="M26.5599 31.6829C25.6517 34.9876 22.4683 34.0038 22.4683 34.0038C20.5 33.5899 19.922 31.7913 19.7807 30.3722L19.7992 30.3696C19.7532 29.8971 19.7404 29.4668 19.7531 29.0749C19.7703 28.7534 19.7992 28.5548 19.7992 28.5548L19.7867 28.5531C20.023 26.1437 21.2755 25.4355 21.2755 25.4355L18.2342 24.2449C15.9881 26.721 16.6459 30.7944 16.6459 30.7944L16.6643 30.7918C16.8531 32.4363 17.327 33.2469 17.327 33.2469C19.9001 38.5193 25.7275 36.602 25.7275 36.602C29.5366 35.2398 29.6627 31.6829 29.6627 31.6829H26.5599Z" fill="white"/>
</g>
<mask id="mask11_291_2766" style="mask-type:luminance" maskUnits="userSpaceOnUse" x="-12" y="-75" width="141" height="141">
<path d="M-11.1416 -74.7827H128.858V65.2173H-11.1416V-74.7827Z" fill="white"/>
</mask>
<g mask="url(#mask11_291_2766)">
<path d="M39.814 27.1916H46.2536V30.115H39.814V27.1916Z" fill="#4C4C4D"/>
</g>
<mask id="mask12_291_2766" style="mask-type:luminance" maskUnits="userSpaceOnUse" x="-12" y="-75" width="141" height="141">
<path d="M-11.1416 -74.7827H128.858V65.2173H-11.1416V-74.7827Z" fill="white"/>
</mask>
<g mask="url(#mask12_291_2766)">
<path d="M62.6354 17.263V35.6521H58.4053V28.0675H52.6661V35.6521H48.436V17.263H52.6661V24.4301H58.4053V17.263H62.6354Z" fill="#4C4C4D"/>
</g>
<mask id="mask13_291_2766" style="mask-type:luminance" maskUnits="userSpaceOnUse" x="-12" y="-75" width="141" height="141">
<path d="M-11.1416 -74.7827H128.858V65.2173H-11.1416V-74.7827Z" fill="white"/>
</mask>
<g mask="url(#mask13_291_2766)">
<path d="M73.7498 29.1316C70.9477 29.4101 69.5465 30.2589 69.5465 31.6779C69.5465 32.154 69.6941 32.5649 69.9895 32.9106C70.2851 33.2564 70.7059 33.4292 71.2519 33.4292C71.9592 33.4292 72.5522 33.1352 73.0312 32.5467C73.5101 31.9586 73.7498 31.2333 73.7498 30.3711V29.1316ZM78.0069 35.652H74.1134C73.9877 35.1131 73.9249 34.4038 73.9249 33.5234C73.2432 34.4934 72.564 35.138 71.8871 35.4567C71.2101 35.7753 70.4412 35.9349 69.5802 35.9349C68.3067 35.9349 67.2778 35.5894 66.4932 34.8976C65.7085 34.2062 65.3164 33.2766 65.3164 32.109C65.3164 31.2558 65.545 30.47 66.0024 29.7514C66.4595 29.0329 67.1947 28.4694 68.2082 28.0606C69.2216 27.6521 71.0688 27.349 73.7498 27.1512V26.3699C73.7498 25.0496 73.0915 24.3895 71.7754 24.3895C70.3697 24.3895 69.5864 25.0496 69.4253 26.3699L65.7205 26.0197C65.963 24.475 66.6948 23.3791 67.9164 22.7325C69.1378 22.0858 70.5209 21.7625 72.0658 21.7625C72.9906 21.7625 73.862 21.8702 74.6794 22.0858C75.4965 22.3014 76.1342 22.6247 76.5922 23.0557C77.0503 23.4869 77.3603 23.9428 77.5218 24.4232C77.6835 24.9037 77.7643 25.7413 77.7643 26.9357V33.1059C77.7643 34.2913 77.8454 35.1401 78.0069 35.652Z" fill="#4C4C4D"/>
</g>
<mask id="mask14_291_2766" style="mask-type:luminance" maskUnits="userSpaceOnUse" x="-12" y="-75" width="141" height="141">
<path d="M-11.1416 -74.7827H128.858V65.2173H-11.1416V-74.7827Z" fill="white"/>
</mask>
<g mask="url(#mask14_291_2766)">
<path d="M85.6051 25.1703V30.9228C85.6051 31.6415 85.7122 32.1218 85.9271 32.3643C86.1416 32.6069 86.6469 32.7281 87.4428 32.7281C87.8095 32.7281 88.2343 32.7101 88.7171 32.6742V35.6514C87.5496 35.8489 86.7098 35.9479 86.1979 35.9479C84.5274 35.9479 83.3419 35.6268 82.6414 34.9846C81.9407 34.3425 81.5906 33.1817 81.5906 31.5022V25.1703H79.4351V22.0448H81.8195L82.1429 18.0302L85.6051 17.7607V22.0448H88.5286V25.1703H85.6051Z" fill="#4C4C4D"/>
</g>
<mask id="mask15_291_2766" style="mask-type:luminance" maskUnits="userSpaceOnUse" x="-12" y="-75" width="141" height="141">
<path d="M-11.1416 -74.7827H128.858V65.2173H-11.1416V-74.7827Z" fill="white"/>
</mask>
<g mask="url(#mask15_291_2766)">
<path d="M93.0293 23.1262C92.9169 22.3142 92.8106 21.5458 92.6998 20.7442C92.6052 20.8127 92.5288 20.8659 92.4549 20.9218C91.8939 21.3463 91.2817 21.6941 90.5979 21.9377C90.3662 22.0203 90.1603 22.0255 89.9508 21.917C89.5476 21.7083 89.1323 21.5154 88.7197 21.3148C88.8839 21.1322 89.0617 21.0664 89.3013 21.0815C89.6315 21.1024 89.9678 21.0956 90.3024 21.084C90.4039 21.0805 90.5299 21.0443 90.6084 20.9859C91.8186 20.0854 93.0238 19.1795 94.228 18.2727C94.5594 18.0233 94.9349 17.8918 95.3523 17.8832C95.7154 17.8757 95.8588 18.0683 95.6903 18.3578C95.6032 18.5075 95.4681 18.6496 95.3232 18.7655C94.9701 19.0481 94.6005 19.3153 94.2334 19.5843C94.1319 19.6587 94.0783 19.7339 94.0625 19.8505C93.9464 20.7039 93.8137 21.557 93.6996 22.4105C93.6743 22.6004 93.5949 22.7421 93.4079 22.855C93.2898 22.9263 93.1842 23.0141 93.0293 23.1262Z" fill="#4C4C4D"/>
</g>
<mask id="mask16_291_2766" style="mask-type:luminance" maskUnits="userSpaceOnUse" x="-12" y="-75" width="141" height="141">
<path d="M-11.1416 -74.7827H128.858V65.2173H-11.1416V-74.7827Z" fill="white"/>
</mask>
<g mask="url(#mask16_291_2766)">
<path d="M89.978 19.684C90.2588 19.4712 90.4618 19.2027 90.8957 19.243C91.3336 19.2836 91.7841 19.2675 92.229 19.2767C92.2662 19.2775 92.3028 19.2824 92.3767 19.2884C92.0329 19.5425 91.719 19.7763 91.4017 20.0063C91.3713 20.0284 91.3127 20.0428 91.2778 20.0348C90.8741 19.9413 90.4723 19.8433 90.071 19.7444C90.043 19.7375 90.0224 19.7135 89.978 19.684Z" fill="#4C4C4D"/>
</g>
<mask id="mask17_291_2766" style="mask-type:luminance" maskUnits="userSpaceOnUse" x="-12" y="-75" width="141" height="141">
<path d="M-11.1416 -74.7827H128.858V65.2173H-11.1416V-74.7827Z" fill="white"/>
</mask>
<g mask="url(#mask17_291_2766)">
<path d="M78.3662 28.0606C74.9139 29.5351 72.1092 30.3704 66.4995 32.0408C66.4995 32.0408 62.6687 33.1814 55.6502 34.6205C54.3973 34.8774 52.2584 35.2991 49.4722 35.0727C48.246 34.9731 47.2379 34.7758 46.5425 34.6128C46.6261 34.1704 46.7876 33.6242 47.1083 33.0591C47.1967 32.9032 47.289 32.7605 47.3818 32.6304C47.5283 32.4239 47.7292 32.1949 47.9005 32.2346C48.0257 32.2637 48.0649 32.4372 48.1072 32.4795C48.6964 33.0668 49.7596 33.3485 51.0788 33.393C51.7355 33.4186 52.4497 33.3931 53.2001 33.3304C54.3841 33.2317 55.2784 33.0714 55.567 33.0185C62.075 31.8233 66.5731 30.5666 66.5731 30.5666C71.8226 29.1 74.4473 28.3667 77.8503 26.8813C80.084 25.9062 83.3691 24.3037 89.1406 21.9778C89.2601 21.9296 89.3589 21.89 89.4251 21.8634C89.2435 22.0847 89.063 22.3043 88.8835 22.5228C84.7696 25.1265 81.1094 26.8889 78.3662 28.0606Z" fill="white"/>
</g>
<path d="M90.3393 13.4243V16.1751H89.7891C89.749 15.9817 89.6912 15.7845 89.6158 15.5835C89.249 16.0307 88.7818 16.2542 88.214 16.2542C87.5433 16.2542 87.0207 16.0143 86.6464 15.5345C86.2746 15.0547 86.0887 14.4342 86.0887 13.673C86.0887 12.854 86.2872 12.1958 86.6841 11.6984C87.0835 11.201 87.6249 10.9523 88.3082 10.9523C88.881 10.9523 89.3432 11.1131 89.6949 11.4346C90.0466 11.7562 90.2614 12.1845 90.3393 12.7196L89.1938 12.8703C89.1008 12.2473 88.8056 11.9358 88.3082 11.9358C87.9816 11.9358 87.7342 12.084 87.5659 12.3805C87.4001 12.6744 87.3172 13.0952 87.3172 13.6428C87.3172 14.1704 87.4076 14.5736 87.5885 14.8524C87.7693 15.1313 88.0268 15.2707 88.361 15.2707C88.577 15.2707 88.7692 15.2004 88.9375 15.0597C89.1083 14.919 89.1938 14.6942 89.1938 14.3852H88.2253V13.4243H90.3393ZM93.2258 16.2542C92.5325 16.2542 91.9961 15.9942 91.6168 15.4742C91.2374 14.9542 91.0478 14.3249 91.0478 13.5863C91.0478 12.8352 91.2399 12.2084 91.6243 11.7059C92.0087 11.2035 92.5563 10.9523 93.2673 10.9523C93.9857 10.9523 94.5271 11.2211 94.8914 11.7587C95.2582 12.2938 95.4416 12.9068 95.4416 13.5976C95.4416 14.3437 95.2531 14.973 94.8763 15.4855C94.4995 15.998 93.9493 16.2542 93.2258 16.2542ZM93.2597 11.9358C92.6267 11.9358 92.3101 12.491 92.3101 13.6014C92.3101 14.7143 92.6267 15.2707 93.2597 15.2707C93.8727 15.2707 94.1792 14.7155 94.1792 13.6051C94.1792 12.4922 93.8727 11.9358 93.2597 11.9358Z" fill="#F47720"/>
<path d="M49.1916 39.016H48.2777V38.6538H50.5393V39.016H49.6254V41.5978H49.1916V39.016ZM50.918 38.6538H52.1015C52.416 38.6538 52.6575 38.7296 52.8259 38.8812C52.9944 39.0328 53.0786 39.2547 53.0786 39.5467C53.0786 39.7629 53.0211 39.9468 52.9059 40.0984C52.7908 40.2472 52.628 40.3483 52.4174 40.4016L53.066 41.5978H52.6195L51.992 40.4353H51.3476V41.5978H50.918V38.6538ZM52.0299 40.0731C52.218 40.0731 52.3668 40.0296 52.4763 39.9426C52.5887 39.8527 52.6448 39.7207 52.6448 39.5467C52.6448 39.3557 52.5901 39.2196 52.4806 39.1381C52.3739 39.0567 52.2236 39.016 52.0299 39.016H51.3476V40.0731H52.0299ZM54.4437 38.6538H54.8565L56.0315 41.5978H55.5935L55.2987 40.8649H53.9973L53.7109 41.5978H53.2687L54.4437 38.6538ZM55.1808 40.5069L54.6501 39.1297L54.1194 40.5069H55.1808ZM55.8434 38.6538H56.2983L57.2248 41.0123L58.1514 38.6538H58.6063L57.4312 41.5978H57.0185L55.8434 38.6538ZM59.0699 38.6538H61.0115V39.016H59.4995V39.9468H60.6283V40.3048H59.4995V41.2398H61.0115V41.5978H59.0699V38.6538ZM61.4555 38.6538H61.8851V41.2398H63.376V41.5978H61.4555V38.6538Z" fill="#4D4C4E"/>
<mask id="mask18_291_2766" style="mask-type:luminance" maskUnits="userSpaceOnUse" x="-12" y="-75" width="141" height="141">
<path d="M-11.1416 -74.7827H128.858V65.2173H-11.1416V-74.7827Z" fill="white"/>
</mask>
<g mask="url(#mask18_291_2766)">
<path d="M64.6726 40.3639C64.6726 40.5747 64.5017 40.7456 64.2909 40.7456C64.0801 40.7456 63.9092 40.5747 63.9092 40.3639C63.9092 40.1531 64.0801 39.9822 64.2909 39.9822C64.5017 39.9822 64.6726 40.1531 64.6726 40.3639Z" fill="#4D4C4E"/>
</g>
<path d="M65.336 38.6538H65.7909L66.7174 41.0123L67.644 38.6538H68.0989L66.9238 41.5978H66.5111L65.336 38.6538ZM68.5626 38.6538H68.9964V41.5978H68.5626V38.6538ZM70.3626 41.6609C70.1942 41.6609 70.0271 41.6455 69.8614 41.6146C69.6986 41.5865 69.5652 41.5472 69.4613 41.4967V41.1092C69.7309 41.2355 70.0215 41.2987 70.3331 41.2987C70.7712 41.2987 70.9902 41.1513 70.9902 40.8565C70.9902 40.7554 70.9663 40.674 70.9186 40.6122C70.8708 40.5504 70.802 40.4971 70.7122 40.4522C70.6223 40.4044 70.4763 40.3399 70.2742 40.2584C69.9962 40.1461 69.7955 40.0226 69.6719 39.8878C69.5484 39.753 69.4866 39.5832 69.4866 39.3782C69.4866 39.2238 69.5287 39.0876 69.6129 38.9697C69.6972 38.8489 69.8151 38.7563 69.9667 38.6917C70.1184 38.6243 70.2924 38.5906 70.489 38.5906C70.649 38.5906 70.7936 38.6032 70.9228 38.6285C71.0519 38.6538 71.1783 38.6945 71.3018 38.7507V39.1213C71.0576 39.0118 70.8105 38.957 70.5606 38.957C70.3584 38.957 70.204 38.9935 70.0973 39.0665C69.9906 39.1395 69.9372 39.2434 69.9372 39.3782C69.9372 39.4709 69.9597 39.5495 70.0046 39.614C70.0524 39.6758 70.1212 39.732 70.211 39.7825C70.3037 39.8302 70.4398 39.8906 70.6195 39.9636C70.8189 40.045 70.9761 40.1223 71.0913 40.1953C71.2064 40.2683 71.2934 40.3581 71.3524 40.4648C71.4141 40.5687 71.445 40.6993 71.445 40.8565C71.445 41.112 71.3538 41.31 71.1713 41.4503C70.9888 41.5907 70.7192 41.6609 70.3626 41.6609ZM72.808 38.6538H73.2208L74.3958 41.5978H73.9578L73.663 40.8649H72.3616L72.0752 41.5978H71.633L72.808 38.6538ZM73.5451 40.5069L73.0144 39.1297L72.4837 40.5069H73.5451Z" fill="#4D4C4E"/>
<mask id="mask19_291_2766" style="mask-type:luminance" maskUnits="userSpaceOnUse" x="-12" y="-75" width="141" height="141">
<path d="M-11.1416 -74.7827H128.858V65.2173H-11.1416V-74.7827Z" fill="white"/>
</mask>
<g mask="url(#mask19_291_2766)">
<path d="M52.666 35.6521C52.666 35.6521 52.7118 35.1283 53.8453 34.9412L52.4058 35.0912L52.666 35.6521Z" fill="#4C4C4D"/>
</g>
<mask id="mask20_291_2766" style="mask-type:luminance" maskUnits="userSpaceOnUse" x="-12" y="-75" width="141" height="141">
<path d="M-11.1416 -74.7827H128.858V65.2173H-11.1416V-74.7827Z" fill="white"/>
</mask>
<g mask="url(#mask20_291_2766)">
<path d="M62.6584 34.5879C62.6584 34.5879 62.5073 33.1019 63.7235 32.7869L61.8408 33.2505L62.6584 34.5879Z" fill="#4C4C4D"/>
</g>
<mask id="mask21_291_2766" style="mask-type:luminance" maskUnits="userSpaceOnUse" x="-12" y="-75" width="141" height="141">
<path d="M-11.1416 -74.7827H128.858V65.2173H-11.1416V-74.7827Z" fill="white"/>
</mask>
<g mask="url(#mask21_291_2766)">
<path d="M58.3998 31.2791C58.3998 31.2791 58.5461 32.4982 59.5539 32.2326L57.5454 32.6418V31.5412L58.3998 31.2791Z" fill="white"/>
</g>
<mask id="mask22_291_2766" style="mask-type:luminance" maskUnits="userSpaceOnUse" x="-12" y="-75" width="141" height="141">
<path d="M-11.1416 -74.7827H128.858V65.2173H-11.1416V-74.7827Z" fill="white"/>
</mask>
<g mask="url(#mask22_291_2766)">
<path d="M62.6258 30.0669C62.6258 30.0669 62.5826 31.3913 64.2913 31.1549L62.4346 31.597L62.6258 30.0669Z" fill="#4C4C4D"/>
</g>
<mask id="mask23_291_2766" style="mask-type:luminance" maskUnits="userSpaceOnUse" x="-12" y="-75" width="141" height="141">
<path d="M-11.1416 -74.7827H128.858V65.2173H-11.1416V-74.7827Z" fill="white"/>
</mask>
<g mask="url(#mask23_291_2766)">
<path d="M52.666 33.3693C52.666 33.3693 53.6438 33.3448 53.6825 33.3356C53.6825 33.3356 52.666 33.0285 52.666 32.6769V33.3693Z" fill="#4C4C4D"/>
</g>
<mask id="mask24_291_2766" style="mask-type:luminance" maskUnits="userSpaceOnUse" x="-12" y="-75" width="141" height="141">
<path d="M-11.1416 -74.7827H128.858V65.2173H-11.1416V-74.7827Z" fill="white"/>
</mask>
<g mask="url(#mask24_291_2766)">
<path d="M69.5469 31.6769C69.5469 31.6769 69.7196 31.0802 70.5286 30.8314L69.3296 31.1946L69.5469 31.6769Z" fill="#4C4C4D"/>
</g>
<mask id="mask25_291_2766" style="mask-type:luminance" maskUnits="userSpaceOnUse" x="-12" y="-75" width="141" height="141">
<path d="M-11.1416 -74.7827H128.858V65.2173H-11.1416V-74.7827Z" fill="white"/>
</mask>
<g mask="url(#mask25_291_2766)">
<path d="M73.7338 30.4432C73.7338 30.4432 73.8208 29.912 74.645 29.5019L73.7338 29.8083L73.731 30.5295" fill="white"/>
</g>
<mask id="mask26_291_2766" style="mask-type:luminance" maskUnits="userSpaceOnUse" x="-12" y="-75" width="141" height="141">
<path d="M-11.1416 -74.7827H128.858V65.2173H-11.1416V-74.7827Z" fill="white"/>
</mask>
<g mask="url(#mask26_291_2766)">
<path d="M77.7638 29.1317C77.7638 29.1317 77.6675 28.6788 78.6472 27.94L77.4141 28.4579L77.7638 29.1317Z" fill="#4C4C4D"/>
</g>
<mask id="mask27_291_2766" style="mask-type:luminance" maskUnits="userSpaceOnUse" x="-12" y="-75" width="141" height="141">
<path d="M-11.1416 -74.7827H128.858V65.2173H-11.1416V-74.7827Z" fill="white"/>
</mask>
<g mask="url(#mask27_291_2766)">
<path d="M77.6632 26.9514L79.1638 26.3086C79.1638 26.3086 77.842 26.7448 77.6416 26.0148L77.6632 26.9514Z" fill="#4C4C4D"/>
</g>
<mask id="mask28_291_2766" style="mask-type:luminance" maskUnits="userSpaceOnUse" x="-11" y="-75" width="140" height="141">
<path d="M-11 -74.8652H129V65.1348H-11V-74.8652Z" fill="white"/>
</mask>
<g mask="url(#mask28_291_2766)">
<path d="M88.5289 22.226L89.1409 21.9783L88.3252 22.0456L88.5289 22.226Z" fill="#4C4C4D"/>
</g>
<path d="M88.5288 22.7469L88.9529 22.4395C88.9529 22.4395 88.6506 22.7627 88.5288 23.4834V22.7469Z" fill="#4C4C4D"/>
</g>
<defs>
<linearGradient id="paint0_linear_291_2766" x1="9.28475" y1="27.7275" x2="36.6194" y2="27.7275" gradientUnits="userSpaceOnUse">
<stop stop-color="#F47720"/>
<stop offset="5e-08" stop-color="#F47720"/>
<stop offset="0.61652" stop-color="#F47720"/>
<stop offset="0.82435" stop-color="#F16022"/>
<stop offset="1" stop-color="#F16022"/>
</linearGradient>
<clipPath id="clip0_291_2766">
<rect width="105" height="52.2667" fill="white"/>
</clipPath>
</defs>
</svg>
